<svg aria-hidden="true" style="position: absolute; width: 0; height: 0; overflow: hidden;" version="1.1" xmlns="http://www.w3.org/2000/svg" xmlns:xlink="http://www.w3.org/1999/xlink">
<defs>
<symbol id="icon-people" viewBox="0 0 46 32">
<path d="M12.953 27.618h-6.286c-0.382 0-0.571-0.19-0.763-0.379-0.19-0.192-0.379-0.571-0.19-0.953 1.143-3.239 4-5.143 7.239-5.143 4 0 7.237-3.429 7.237-7.429s-3.237-7.81-7.237-7.81-7.239 3.429-7.239 7.621c0 1.904 0.761 3.808 1.904 5.143-2.475 1.333-4.379 3.429-5.522 6.286-0.116 0.412-0.183 0.885-0.183 1.374 0 1.125 0.353 2.167 0.955 3.022l-0.011-0.017c0.953 1.335 2.286 2.096 3.81 2.096h6.286c1.143 0 1.904-0.761 1.904-1.904s-0.761-1.906-1.904-1.906zM9.525 13.525c0-2.096 1.522-3.621 3.429-3.621 1.904 0 3.429 1.714 3.429 3.621 0 2.094-1.525 3.618-3.429 3.618-1.906 0-3.429-1.714-3.429-3.618z"></path>
<path d="M43.618 23.81c-1.306-3.439-3.798-6.178-6.965-7.773l-0.082-0.037c1.714-1.525 2.667-3.81 2.667-6.475 0-4.953-3.81-8.953-8.382-8.953s-8.382 4-8.382 8.953c0 2.475 0.953 4.761 2.667 6.475-3.249 1.632-5.741 4.371-7.014 7.712l-0.033 0.098c-0.953 1.714-0.571 3.618 0.379 5.143 0.953 1.522 2.667 2.286 4.382 2.286h15.81c1.714 0 3.429-0.953 4.379-2.286 1.143-1.525 1.335-3.429 0.571-5.143zM26.096 9.714c0-2.857 2.094-5.143 4.571-5.143 2.475 0 4.571 2.286 4.571 5.143s-2.096 5.143-4.571 5.143c-2.478 0-4.571-2.475-4.571-5.143zM39.81 26.857c-0.192 0.19-0.571 0.761-1.143 0.761h-15.81c-0.761 0-1.143-0.571-1.143-0.761-0.219-0.274-0.351-0.626-0.351-1.009 0-0.257 0.059-0.499 0.165-0.715l-0.004 0.010c1.522-4 5.333-6.667 9.333-6.667s7.81 2.667 9.333 6.667c0.192 0.761-0.19 1.525-0.379 1.714z"></path>
</symbol>
<symbol id="icon-transmission" viewBox="0 0 30 32">
<path d="M5.628 1.333c-0.001 0-0.001 0-0.002 0-2.373 0-4.297 1.924-4.297 4.297s1.923 4.296 4.295 4.297h0c0.001 0 0.001 0 0.002 0 2.373 0 4.297-1.924 4.297-4.297s-1.923-4.296-4.295-4.297h-0zM5.628 4c0.9 0 1.63 0.73 1.63 1.63s-0.73 1.63-1.63 1.63v0c-0.9-0.001-1.628-0.731-1.628-1.63 0-0.001 0-0.001 0-0.002v0c0-0.432 0.172-0.843 0.48-1.148 0.293-0.296 0.699-0.479 1.148-0.48h0zM23.406 8.74c-0.736 0-1.333 0.597-1.333 1.333v0 7.41c0 0.736 0.597 1.333 1.333 1.333v0c0.736 0 1.333-0.597 1.333-1.333v0-1.632h0.889c0.001 0 0.002 0 0.003 0 0.98 0 1.868-0.397 2.511-1.038l-0 0c0.001-0.001 0.002-0.002 0.004-0.004l0-0c0.667-0.667 1.038-1.572 1.038-2.514s-0.372-1.849-1.038-2.514c-0.001 0-0.001 0-0.002 0s-0.001 0-0.002 0h0c-0.643-0.643-1.532-1.041-2.514-1.042h-0zM24.74 11.406h0.889c0.491 0 0.889 0.398 0.889 0.889s-0.398 0.889-0.889 0.889h-0.889zM23.406 22.073c-0.736 0-1.333 0.597-1.333 1.333v0 5.927c0 0.736 0.597 1.333 1.333 1.333v0h1.483c2.373 0 4.297-1.924 4.297-4.297s-1.924-4.297-4.297-4.297v0zM24.74 24.74h0.149c0.868 0.042 1.556 0.756 1.556 1.63s-0.688 1.588-1.552 1.63l-0.004 0h-0.149z"></path>
<path fill="none" stroke="#101828" style="stroke: var(--color1, #101828)" stroke-linejoin="round" stroke-linecap="round" stroke-miterlimit="4" stroke-width="2.6667" d="M5.63 8.592v4.444c0 0.001 0 0.001 0 0.002 0 0.818 0.663 1.481 1.481 1.481h4.444M11.556 14.519v10.37c0 0.818 0.663 1.481 1.481 1.481v0h4.444M11.556 14.519h5.925"></path>
</symbol>
<symbol id="icon-kitchen" viewBox="0 0 25 32">
<path d="M23.34 1.44c-0.155-0.068-0.335-0.108-0.525-0.108-0.357 0-0.682 0.141-0.921 0.369l0-0c-7.381 7.040-7.858 13.241-7.822 18.75 0.004 0.733 0.599 1.326 1.333 1.326 0 0 0 0 0 0h6.076v1.806c-0.040-0.011-0.091-0.021-0.142-0.028l-0.007-0.001c-0.736 0-1.333 0.597-1.333 1.333v0 4.444c0 0.736 0.597 1.333 1.333 1.333v0h1.483c0.736 0 1.333-0.597 1.333-1.333v0-26.667c0-0 0-0.001 0-0.001 0-0.547-0.329-1.017-0.8-1.223l-0.009-0.003zM2.073 2.816c-0.736 0-1.333 0.597-1.333 1.333v0 4.444c0 1.532 0.612 3.001 1.694 4.084 0.729 0.729 1.769 0.884 2.75 1.141v15.515c0 0.736 0.597 1.333 1.333 1.333v0c0.736 0 1.333-0.597 1.333-1.333v0-15.515c0.981-0.258 2.023-0.412 2.754-1.141 1.084-1.084 1.691-2.551 1.691-4.084v-4.444c0-0.736-0.597-1.333-1.333-1.333v0c-0.736 0-1.333 0.597-1.333 1.333v0 4.444c0 0.825-0.325 1.614-0.91 2.197-0.231 0.231-0.583 0.215-0.868 0.361v-7.003c0-0.736-0.597-1.333-1.333-1.333v0c-0.736 0-1.333 0.597-1.333 1.333v0 6.999c-0.284-0.146-0.635-0.128-0.864-0.356-0.564-0.562-0.913-1.34-0.914-2.199v-4.445c0-0.736-0.597-1.333-1.333-1.333v0zM21.483 6.244v12.868h-4.594c0.032-4.128 0.622-8.112 4.594-12.868z"></path>
</symbol>
<symbol id="icon-shower" viewBox="0 0 32 32">
<path d="M4.627 4.627c-0.181 0.181-0.293 0.431-0.293 0.707s0.112 0.526 0.293 0.707l2.812 2.813c-0.99 1.304-1.65 2.832-1.658 4.488-0.008 1.658 0.637 3.196 1.617 4.512l-1.438 1.439c-0.181 0.181-0.293 0.431-0.293 0.707s0.112 0.526 0.293 0.707v0c0.181 0.181 0.431 0.293 0.707 0.293s0.526-0.112 0.707-0.293l1.994-1.992c-0.001 0.002 0-0 0.002-0.002l0.002-0.004 9.344-9.342c-0.002 0.004-0.001 0.003-0.001 0.002l0.003-0.006 1.99-1.99c0.181-0.181 0.293-0.431 0.293-0.707s-0.112-0.526-0.293-0.707v0c-0.181-0.181-0.431-0.293-0.707-0.293s-0.526 0.112-0.707 0.293l-1.44 1.44c-1.315-0.981-2.854-1.627-4.511-1.619-1.656 0.009-3.184 0.668-4.488 1.658l-2.815-2.811c-0.181-0.181-0.431-0.293-0.707-0.293s-0.526 0.112-0.707 0.293v0zM13.352 7.781c1.124-0.005 2.163 0.418 3.086 1.033l-7.624 7.623c-0.615-0.922-1.038-1.96-1.033-3.085 0.016-3.070 2.5-5.554 5.569-5.57h0.002zM21.334 12.334c-0.552 0-1 0.448-1 1v0 0.014c0 0.552 0.448 1 1 1v0c0.552 0 1-0.448 1-1v0-0.014c0-0.552-0.448-1-1-1v0zM26.666 13.666c-0.552 0-1 0.448-1 1v0 0.014c0 0.552 0.448 1 1 1v0c0.552 0 1-0.448 1-1v0-0.014c0-0.552-0.448-1-1-1v0zM17.334 16.334c-0.552 0-1 0.448-1 1v0 0.014c0 0.552 0.448 1 1 1v0c0.552 0 1-0.448 1-1v0-0.014c0-0.552-0.448-1-1-1v0zM22.666 17.666c-0.552 0-1 0.448-1 1v0 0.014c0 0.552 0.448 1 1 1v0c0.552 0 1-0.448 1-1v0-0.014c0-0.552-0.448-1-1-1v0zM13.334 20.334c-0.552 0-1 0.448-1 1v0 0.014c0 0.552 0.448 1 1 1v0c0.552 0 1-0.448 1-1v0-0.014c0-0.552-0.448-1-1-1v0zM18.666 21.666c-0.552 0-1 0.448-1 1v0 0.014c0 0.552 0.448 1 1 1v0c0.552 0 1-0.448 1-1v0-0.014c0-0.552-0.448-1-1-1v0zM14.666 25.666c-0.552 0-1 0.448-1 1v0 0.014c0 0.552 0.448 1 1 1v0c0.552 0 1-0.448 1-1v0-0.014c0-0.552-0.448-1-1-1v0z"></path>
</symbol>
<symbol id="icon-tv" viewBox="0 0 32 32">
<path d="M8 7.1c-2.704 0.006-4.894 2.196-4.9 4.899v10.001c0.006 2.704 2.196 4.894 4.899 4.9h16.001c2.704-0.006 4.894-2.196 4.9-4.899v-10.001c-0.006-2.704-2.196-4.894-4.899-4.9h-0.001zM8 8.9h16c1.733 0 3.1 1.367 3.1 3.1v10c0 1.733-1.367 3.1-3.1 3.1h-16c-0.008 0-0.018 0-0.027 0-1.697 0-3.073-1.376-3.073-3.073 0-0.010 0-0.019 0-0.029v0.001-10c0-1.733 1.367-3.1 3.1-3.1zM12 29.1c-0.497 0-0.9 0.403-0.9 0.9v0c0 0.497 0.403 0.9 0.9 0.9v0h8c0.497 0 0.9-0.403 0.9-0.9v0c0-0.497-0.403-0.9-0.9-0.9v0z"></path>
<path d="M21.363 1.363l-6 6c-0.163 0.163-0.264 0.388-0.264 0.637s0.101 0.474 0.264 0.637v0c0.163 0.163 0.388 0.264 0.637 0.264s0.474-0.101 0.637-0.264v0l6-6c0.163-0.163 0.264-0.388 0.264-0.637s-0.101-0.474-0.264-0.637v0c-0.163-0.163-0.388-0.264-0.637-0.264s-0.474 0.101-0.637 0.264v0z"></path>
<path d="M9.363 1.363c-0.163 0.163-0.264 0.388-0.264 0.637s0.101 0.474 0.264 0.637v0l6 6c0.163 0.163 0.388 0.264 0.637 0.264s0.474-0.101 0.637-0.264v0c0.163-0.163 0.264-0.388 0.264-0.637s-0.101-0.474-0.264-0.637v0l-6-6c-0.163-0.163-0.388-0.264-0.637-0.264s-0.474 0.101-0.637 0.264v0z"></path>
</symbol>
<symbol id="icon-alcove" viewBox="0 0 46 32">
<path d="M2.608 1.8h12.409c0 0 0.001 0 0.001 0 0.108 0 0.206-0.043 0.277-0.113l-0 0 1.192-1.161c0.332-0.325 0.788-0.526 1.29-0.526 0.003 0 0.005 0 0.007 0h18.817c0.004-0 0.008-0 0.012-0 0.894 0 1.683 0.446 2.158 1.127l0.006 0.009 2.255 3.301c0.32 0.469 0.35 1.067 0.078 1.563-0.273 0.483-0.783 0.805-1.368 0.805-0.003 0-0.006 0-0.009-0h-9.698v0.957h4.967c0.006-0 0.014-0 0.021-0 1.328 0 2.472 0.789 2.988 1.925l0.008 0.021 2.909 6.649 2.549 0.994c1.36 0.531 2.239 1.798 2.239 3.227v6.158c0 0.919-0.766 1.666-1.707 1.666h-2.965c-0.344 2.038-2.162 3.599-4.35 3.599s-4.007-1.561-4.35-3.6h-16.203c-0.345 2.040-2.165 3.6-4.351 3.6-2.185 0-4.005-1.561-4.35-3.6h-5.92c-0.839 0-1.519-0.663-1.519-1.479v-22.578c0-1.403 1.169-2.544 2.608-2.544zM36.693 30.594c1.637 0 2.969-1.299 2.969-2.897 0-1.597-1.333-2.896-2.969-2.896-1.638 0-2.969 1.299-2.969 2.896 0 1.598 1.331 2.897 2.969 2.897zM30.034 26.994h2.307l0.019-0.104 0.014-0.071c0.011-0.055 0.025-0.11 0.039-0.165l0.009-0.034c0.017-0.065 0.035-0.129 0.057-0.194 0.005-0.018 0.011-0.037 0.018-0.056 0.034-0.102 0.059-0.171 0.086-0.238l-0.011 0.032 0.047-0.114 0.034-0.075 0.049-0.109 0.038-0.075 0.055-0.103 0.040-0.074 0.059-0.101 0.043-0.071 0.066-0.101 0.045-0.065c0.025-0.035 0.050-0.071 0.078-0.105l0.040-0.055c0.089-0.113 0.173-0.212 0.261-0.308l-0.003 0.004 0.042-0.043 0.096-0.099 0.057-0.053c0.075-0.072 0.153-0.142 0.234-0.209l0.007-0.005 0.066-0.051c0.042-0.034 0.094-0.074 0.148-0.113l0.013-0.009 0.097-0.067 0.069-0.046c0.034-0.023 0.069-0.043 0.104-0.065l0.069-0.041c0.038-0.023 0.077-0.043 0.115-0.065l0.059-0.034c0.025-0.015 0.081-0.043 0.137-0.069l0.032-0.014 0.013-0.006c0.062-0.030 0.123-0.057 0.186-0.082 0.019-0.009 0.041-0.016 0.061-0.024l0.13-0.050 0.074-0.026c0.139-0.050 0.314-0.099 0.493-0.138l0.030-0.006 0.087-0.018c0.087-0.018 0.201-0.036 0.317-0.049l0.019-0.002 0.082-0.009 0.143-0.011c0.023 0 0.047-0.003 0.071-0.003 0.065-0.004 0.14-0.006 0.216-0.006s0.151 0.002 0.226 0.006l-0.010-0c0.023 0 0.046 0.002 0.071 0.005 0.047 0.002 0.095 0.006 0.143 0.011 0.027 0.001 0.055 0.006 0.082 0.008 0.164 0.018 0.308 0.042 0.449 0.074l-0.026-0.005c0.208 0.044 0.383 0.093 0.554 0.153l-0.030-0.009 0.074 0.026 0.13 0.050 0.061 0.023c0.063 0.026 0.126 0.054 0.186 0.083l0.013 0.006c0.057 0.027 0.113 0.055 0.168 0.085l0.059 0.033c0.040 0.021 0.079 0.042 0.117 0.065l0.069 0.041 0.103 0.065 0.070 0.046 0.097 0.069c0.064 0.045 0.116 0.085 0.167 0.126l-0.006-0.005 0.066 0.051c0.089 0.075 0.167 0.145 0.244 0.218l-0.003-0.003 0.057 0.053 0.096 0.099 0.042 0.043c0.046 0.048 0.089 0.098 0.131 0.149l0.017 0.021c0.037 0.045 0.073 0.088 0.109 0.135l0.040 0.055 0.078 0.105 0.045 0.065 0.066 0.101 0.043 0.071 0.058 0.101 0.041 0.074 0.055 0.103 0.038 0.075c0.017 0.037 0.034 0.072 0.049 0.109l0.034 0.074c0.020 0.043 0.045 0.105 0.068 0.168l0.006 0.020 0.047 0.134 0.019 0.057c0.019 0.064 0.039 0.128 0.057 0.194l0.008 0.034c0.014 0.054 0.026 0.109 0.038 0.163l0.015 0.071 0.019 0.104h2.963c0.001 0 0.002 0 0.003 0 0.144 0 0.261-0.116 0.263-0.259v-2.946h-1.125v-1.406h1.125v-1.806c0-0.851-0.523-1.606-1.334-1.922l-2.697-1.051h-10.208v9.391zM30.034 16.197h9.257l-2.598-5.939c-0.294-0.648-0.936-1.090-1.68-1.090-0.004 0-0.009 0-0.013 0h-4.966v7.030zM11.789 30.594c1.638 0 2.969-1.299 2.969-2.897 0-1.597-1.331-2.896-2.969-2.896-0.051 0-0.102 0.001-0.152 0.005-1.365 0.067-2.488 1.038-2.757 2.309-0.027 0.126-0.047 0.274-0.056 0.426l-0 0.008c-0.002 0.040-0.003 0.086-0.003 0.133 0 0.005 0 0.011 0 0.016v-0.001c0 1.598 1.331 2.897 2.968 2.897zM1.441 22.383h1.125v1.406h-1.126v3.131c0 0.041 0.034 0.074 0.077 0.074h5.92l0.021-0.103c0.005-0.024 0.008-0.049 0.014-0.073 0.011-0.054 0.023-0.107 0.038-0.16l0.009-0.038c0.017-0.065 0.037-0.129 0.057-0.194l0.019-0.057 0.046-0.133 0.029-0.072c0.041-0.106 0.068-0.169 0.096-0.231l-0.016 0.040 0.049-0.106c0.011-0.026 0.025-0.051 0.039-0.077l0.053-0.103 0.042-0.074c0.081-0.139 0.151-0.249 0.225-0.356l-0.013 0.019 0.077-0.104 0.042-0.057c0.034-0.045 0.069-0.088 0.106-0.131l0.018-0.023c0.043-0.050 0.087-0.101 0.131-0.149l0.043-0.046 0.096-0.097 0.057-0.054 0.088-0.083 0.063-0.054 0.090-0.075 0.066-0.054c0.039-0.032 0.092-0.071 0.144-0.11l0.016-0.011c0.032-0.023 0.064-0.046 0.097-0.066l0.069-0.047 0.103-0.065 0.069-0.041 0.117-0.065 0.061-0.034c0.055-0.029 0.111-0.056 0.167-0.082 0.005-0.002 0.009-0.006 0.015-0.007 0.061-0.030 0.123-0.057 0.185-0.082l0.191-0.074 0.075-0.026c0.012-0.005 0.052-0.019 0.092-0.031l0.028-0.008c0.101-0.033 0.236-0.069 0.374-0.099l0.030-0.005 0.086-0.019c0.087-0.018 0.201-0.036 0.317-0.049l0.019-0.002 0.082-0.009 0.144-0.011c0.023 0 0.046-0.003 0.070-0.003 0.065-0.004 0.14-0.006 0.216-0.006s0.151 0.002 0.226 0.006l-0.010-0c0.024 0 0.047 0.002 0.071 0.005 0.048 0.002 0.096 0.006 0.143 0.011 0.027 0.001 0.055 0.006 0.082 0.008 0.093 0.010 0.166 0.021 0.239 0.033l-0.024-0.003 0.121 0.021 0.087 0.018c0.138 0.029 0.246 0.056 0.352 0.088l-0.031-0.008 0.082 0.025c0.040 0.011 0.080 0.025 0.119 0.039l0.075 0.026 0.13 0.050 0.061 0.023c0.153 0.064 0.274 0.122 0.391 0.186l-0.024-0.012 0.061 0.033 0.117 0.065 0.069 0.041 0.103 0.065 0.070 0.046 0.096 0.069c0.062 0.043 0.114 0.083 0.165 0.124l-0.005-0.004 0.067 0.054c0.031 0.024 0.061 0.050 0.090 0.075l0.062 0.054 0.146 0.137 0.096 0.098 0.042 0.046c0.085 0.092 0.169 0.191 0.249 0.293l0.008 0.010 0.041 0.055c0.026 0.034 0.053 0.070 0.077 0.105l0.045 0.066c0.051 0.073 0.107 0.161 0.159 0.252l0.010 0.019 0.041 0.074 0.054 0.103 0.038 0.075 0.050 0.109 0.033 0.074c0.017 0.039 0.032 0.078 0.047 0.117l0.027 0.071c0.017 0.045 0.032 0.089 0.047 0.135l0.019 0.055c0.021 0.064 0.039 0.13 0.057 0.194l0.007 0.032c0.015 0.055 0.027 0.111 0.040 0.167l0.013 0.069 0.022 0.106h12.453v-20.891c0-0.389 0.322-0.704 0.72-0.704h10.419c0.017 0 0.072 0 0.106-0.063 0.010-0.016 0.016-0.035 0.016-0.055 0-0.025-0.008-0.047-0.023-0.065l0 0-2.254-3.299c-0.216-0.31-0.571-0.511-0.972-0.511-0.002 0-0.003 0-0.005 0h-18.817c-0 0-0.001 0-0.001 0-0.108 0-0.206 0.043-0.277 0.113l0-0-1.192 1.162c-0.332 0.324-0.787 0.525-1.289 0.525-0.003 0-0.006 0-0.009-0h-12.408c-0.004-0-0.008-0-0.013-0-0.632 0-1.145 0.508-1.154 1.137v18.040z"></path>
<path d="M20.115 7.198h4.559c0.92 0 1.67 0.731 1.67 1.63v15.046c0 0.389-0.322 0.703-0.72 0.703h-6.457c-0.002 0-0.005 0-0.008 0-0.39 0-0.707-0.314-0.712-0.702v-15.046c0-0.899 0.747-1.63 1.669-1.63zM19.887 23.169h5.016v-8.266h-5.017v8.266zM19.887 13.497h5.016v-4.671c-0.001-0.124-0.102-0.224-0.226-0.224-0.001 0-0.002 0-0.002 0h-4.56c-0.126 0-0.229 0.101-0.229 0.224v4.669h0.001zM5.536 7.198h8.814c1.019 0 1.848 0.809 1.848 1.802v4.101c0 0.994-0.83 1.802-1.848 1.802h-8.815c-1.018 0-1.847-0.808-1.847-1.802v-4.101c0-0.994 0.829-1.802 1.848-1.802zM5.129 13.101c0 0.217 0.183 0.397 0.407 0.397h8.814c0.001 0 0.003 0 0.005 0 0.22 0 0.399-0.177 0.402-0.396v-4.101c0-0.218-0.183-0.397-0.407-0.397h-8.815c-0.001 0-0.002 0-0.003 0-0.22 0-0.399 0.177-0.402 0.396v4.101z"></path>
</symbol>
<symbol id="icon-fully-integrated" viewBox="0 0 46 32">
<path d="M2.608 1.8h12.409c0 0 0.001 0 0.001 0 0.108 0 0.206-0.043 0.277-0.113l-0 0 1.192-1.161c0.332-0.325 0.788-0.526 1.29-0.526 0.003 0 0.005 0 0.007 0h18.817c0.004-0 0.008-0 0.012-0 0.894 0 1.683 0.446 2.158 1.127l0.006 0.009 2.255 3.301c0.32 0.469 0.35 1.067 0.078 1.563-0.273 0.483-0.783 0.805-1.368 0.805-0.003 0-0.006 0-0.009-0h-9.698v0.957h4.967c0.006-0 0.014-0 0.021-0 1.328 0 2.472 0.789 2.988 1.925l0.008 0.021 2.909 6.649 2.549 0.994c1.36 0.531 2.239 1.798 2.239 3.227v6.158c0 0.919-0.766 1.666-1.707 1.666h-2.965c-0.344 2.038-2.162 3.599-4.35 3.599s-4.007-1.561-4.35-3.6h-16.203c-0.345 2.040-2.165 3.6-4.351 3.6-2.185 0-4.005-1.561-4.35-3.6h-5.92c-0.839 0-1.519-0.663-1.519-1.479v-22.578c0-1.403 1.169-2.544 2.608-2.544zM36.693 30.594c1.637 0 2.969-1.299 2.969-2.897 0-1.597-1.333-2.896-2.969-2.896-1.638 0-2.969 1.299-2.969 2.896 0 1.598 1.331 2.897 2.969 2.897zM30.034 26.994h2.307l0.019-0.104 0.014-0.071c0.011-0.055 0.025-0.11 0.039-0.165l0.009-0.034c0.017-0.065 0.035-0.129 0.057-0.194 0.005-0.018 0.011-0.037 0.018-0.056 0.034-0.102 0.059-0.171 0.086-0.238l-0.011 0.032 0.047-0.114 0.034-0.075 0.049-0.109 0.038-0.075 0.055-0.103 0.040-0.074 0.059-0.101 0.043-0.071 0.066-0.101 0.045-0.065c0.025-0.035 0.050-0.071 0.078-0.105l0.040-0.055c0.089-0.113 0.173-0.212 0.261-0.308l-0.003 0.004 0.042-0.043 0.096-0.099 0.057-0.053c0.075-0.072 0.153-0.142 0.234-0.209l0.007-0.005 0.066-0.051c0.042-0.034 0.094-0.074 0.148-0.113l0.013-0.009 0.097-0.067 0.069-0.046c0.034-0.023 0.069-0.043 0.104-0.065l0.069-0.041c0.038-0.023 0.077-0.043 0.115-0.065l0.059-0.034c0.025-0.015 0.081-0.043 0.137-0.069l0.032-0.014 0.013-0.006c0.062-0.030 0.123-0.057 0.186-0.082 0.019-0.009 0.041-0.016 0.061-0.024l0.13-0.050 0.074-0.026c0.139-0.050 0.314-0.099 0.493-0.138l0.030-0.006 0.087-0.018c0.087-0.018 0.201-0.036 0.317-0.049l0.019-0.002 0.082-0.009 0.143-0.011c0.023 0 0.047-0.003 0.071-0.003 0.065-0.004 0.14-0.006 0.216-0.006s0.151 0.002 0.226 0.006l-0.010-0c0.023 0 0.046 0.002 0.071 0.005 0.047 0.002 0.095 0.006 0.143 0.011 0.027 0.001 0.055 0.006 0.082 0.008 0.164 0.018 0.308 0.042 0.449 0.074l-0.026-0.005c0.208 0.044 0.383 0.093 0.554 0.153l-0.030-0.009 0.074 0.026 0.13 0.050 0.061 0.023c0.063 0.026 0.126 0.054 0.186 0.083l0.013 0.006c0.057 0.027 0.113 0.055 0.168 0.085l0.059 0.033c0.040 0.021 0.079 0.042 0.117 0.065l0.069 0.041 0.103 0.065 0.070 0.046 0.097 0.069c0.064 0.045 0.116 0.085 0.167 0.126l-0.006-0.005 0.066 0.051c0.089 0.075 0.167 0.145 0.244 0.218l-0.003-0.003 0.057 0.053 0.096 0.099 0.042 0.043c0.046 0.048 0.089 0.098 0.131 0.149l0.017 0.021c0.037 0.045 0.073 0.088 0.109 0.135l0.040 0.055 0.078 0.105 0.045 0.065 0.066 0.101 0.043 0.071 0.058 0.101 0.041 0.074 0.055 0.103 0.038 0.075c0.017 0.037 0.034 0.072 0.049 0.109l0.034 0.074c0.020 0.043 0.045 0.105 0.068 0.168l0.006 0.020 0.047 0.134 0.019 0.057c0.019 0.064 0.039 0.128 0.057 0.194l0.008 0.034c0.014 0.054 0.026 0.109 0.038 0.163l0.015 0.071 0.019 0.104h2.963c0.001 0 0.002 0 0.003 0 0.144 0 0.261-0.116 0.263-0.259v-2.946h-1.125v-1.406h1.125v-1.806c0-0.851-0.523-1.606-1.334-1.922l-2.697-1.051h-10.208v9.391zM30.034 16.197h9.257l-2.598-5.939c-0.294-0.648-0.936-1.090-1.68-1.090-0.004 0-0.009 0-0.013 0h-4.966v7.030zM11.789 30.594c1.638 0 2.969-1.299 2.969-2.897 0-1.597-1.331-2.896-2.969-2.896-0.051 0-0.102 0.001-0.152 0.005-1.365 0.067-2.488 1.038-2.757 2.309-0.027 0.126-0.047 0.274-0.056 0.426l-0 0.008c-0.002 0.040-0.003 0.086-0.003 0.133 0 0.005 0 0.011 0 0.016v-0.001c0 1.598 1.331 2.897 2.968 2.897zM1.441 22.383h1.125v1.406h-1.126v3.131c0 0.041 0.034 0.074 0.077 0.074h5.92l0.021-0.103c0.005-0.024 0.008-0.049 0.014-0.073 0.011-0.054 0.023-0.107 0.038-0.16l0.009-0.038c0.017-0.065 0.037-0.129 0.057-0.194l0.019-0.057 0.046-0.133 0.029-0.072c0.041-0.106 0.068-0.169 0.096-0.231l-0.016 0.040 0.049-0.106c0.011-0.026 0.025-0.051 0.039-0.077l0.053-0.103 0.042-0.074c0.081-0.139 0.151-0.249 0.225-0.356l-0.013 0.019 0.077-0.104 0.042-0.057c0.034-0.045 0.069-0.088 0.106-0.131l0.018-0.023c0.043-0.050 0.087-0.101 0.131-0.149l0.043-0.046 0.096-0.097 0.057-0.054 0.088-0.083 0.063-0.054 0.090-0.075 0.066-0.054c0.039-0.032 0.092-0.071 0.144-0.11l0.016-0.011c0.032-0.023 0.064-0.046 0.097-0.066l0.069-0.047 0.103-0.065 0.069-0.041 0.117-0.065 0.061-0.034c0.055-0.029 0.111-0.056 0.167-0.082 0.005-0.002 0.009-0.006 0.015-0.007 0.061-0.030 0.123-0.057 0.185-0.082l0.191-0.074 0.075-0.026c0.012-0.005 0.052-0.019 0.092-0.031l0.028-0.008c0.101-0.033 0.236-0.069 0.374-0.099l0.030-0.005 0.086-0.019c0.087-0.018 0.201-0.036 0.317-0.049l0.019-0.002 0.082-0.009 0.144-0.011c0.023 0 0.046-0.003 0.070-0.003 0.065-0.004 0.14-0.006 0.216-0.006s0.151 0.002 0.226 0.006l-0.010-0c0.024 0 0.047 0.002 0.071 0.005 0.048 0.002 0.096 0.006 0.143 0.011 0.027 0.001 0.055 0.006 0.082 0.008 0.093 0.010 0.166 0.021 0.239 0.033l-0.024-0.003 0.121 0.021 0.087 0.018c0.138 0.029 0.246 0.056 0.352 0.088l-0.031-0.008 0.082 0.025c0.040 0.011 0.080 0.025 0.119 0.039l0.075 0.026 0.13 0.050 0.061 0.023c0.153 0.064 0.274 0.122 0.391 0.186l-0.024-0.012 0.061 0.033 0.117 0.065 0.069 0.041 0.103 0.065 0.070 0.046 0.096 0.069c0.062 0.043 0.114 0.083 0.165 0.124l-0.005-0.004 0.067 0.054c0.031 0.024 0.061 0.050 0.090 0.075l0.062 0.054 0.146 0.137 0.096 0.098 0.042 0.046c0.085 0.092 0.169 0.191 0.249 0.293l0.008 0.010 0.041 0.055c0.026 0.034 0.053 0.070 0.077 0.105l0.045 0.066c0.051 0.073 0.107 0.161 0.159 0.252l0.010 0.019 0.041 0.074 0.054 0.103 0.038 0.075 0.050 0.109 0.033 0.074c0.017 0.039 0.032 0.078 0.047 0.117l0.027 0.071c0.017 0.045 0.032 0.089 0.047 0.135l0.019 0.055c0.021 0.064 0.039 0.13 0.057 0.194l0.007 0.032c0.015 0.055 0.027 0.111 0.040 0.167l0.013 0.069 0.022 0.106h12.453v-20.891c0-0.389 0.322-0.704 0.72-0.704h10.419c0.017 0 0.072 0 0.106-0.063 0.010-0.016 0.016-0.035 0.016-0.055 0-0.025-0.008-0.047-0.023-0.065l0 0-2.254-3.299c-0.216-0.31-0.571-0.511-0.972-0.511-0.002 0-0.003 0-0.005 0h-18.817c-0 0-0.001 0-0.001 0-0.108 0-0.206 0.043-0.277 0.113l0-0-1.192 1.162c-0.332 0.324-0.787 0.525-1.289 0.525-0.003 0-0.006 0-0.009-0h-12.408c-0.004-0-0.008-0-0.013-0-0.632 0-1.145 0.508-1.154 1.137v18.040z"></path>
<path d="M20.115 7.198h4.559c0.92 0 1.67 0.731 1.67 1.63v15.046c0 0.389-0.322 0.703-0.72 0.703h-6.457c-0.002 0-0.005 0-0.008 0-0.39 0-0.707-0.314-0.712-0.702v-15.046c0-0.899 0.747-1.63 1.669-1.63zM19.887 23.169h5.016v-8.266h-5.017v8.266zM19.887 13.497h5.016v-4.671c-0.001-0.124-0.102-0.224-0.226-0.224-0.001 0-0.002 0-0.002 0h-4.56c-0.126 0-0.229 0.101-0.229 0.224l0.001 4.669z"></path>
</symbol>
<symbol id="icon-van" viewBox="0 0 46 32">
<path d="M2.608 1.8h12.409c0 0 0.001 0 0.001 0 0.108 0 0.206-0.043 0.277-0.113l-0 0 1.192-1.161c0.332-0.325 0.788-0.526 1.29-0.526 0.003 0 0.005 0 0.007 0h18.817c0.004-0 0.008-0 0.012-0 0.894 0 1.683 0.446 2.158 1.127l0.006 0.009 2.255 3.301c0.32 0.469 0.35 1.067 0.078 1.563-0.273 0.483-0.783 0.805-1.368 0.805-0.003 0-0.006 0-0.009-0h-9.698v0.957h4.967c0.006-0 0.014-0 0.021-0 1.328 0 2.472 0.789 2.988 1.925l0.008 0.021 2.909 6.649 2.549 0.994c1.36 0.531 2.239 1.798 2.239 3.227v6.158c0 0.919-0.766 1.666-1.707 1.666h-2.965c-0.344 2.038-2.162 3.599-4.35 3.599s-4.007-1.561-4.35-3.6h-16.203c-0.345 2.040-2.165 3.6-4.351 3.6-2.185 0-4.005-1.561-4.35-3.6h-5.92c-0.839 0-1.519-0.663-1.519-1.479v-22.578c0-1.403 1.169-2.544 2.608-2.544zM36.693 30.594c1.637 0 2.969-1.299 2.969-2.897 0-1.597-1.333-2.896-2.969-2.896-1.638 0-2.969 1.299-2.969 2.896 0 1.598 1.331 2.897 2.969 2.897zM30.034 26.994h2.307l0.019-0.104 0.014-0.071c0.011-0.055 0.025-0.11 0.039-0.165l0.009-0.034c0.017-0.065 0.035-0.129 0.057-0.194 0.005-0.018 0.011-0.037 0.018-0.056 0.034-0.102 0.059-0.171 0.086-0.238l-0.011 0.032 0.047-0.114 0.034-0.075 0.049-0.109 0.038-0.075 0.055-0.103 0.040-0.074 0.059-0.101 0.043-0.071 0.066-0.101 0.045-0.065c0.025-0.035 0.050-0.071 0.078-0.105l0.040-0.055c0.089-0.113 0.173-0.212 0.261-0.308l-0.003 0.004 0.042-0.043 0.096-0.099 0.057-0.053c0.075-0.072 0.153-0.142 0.234-0.209l0.007-0.005 0.066-0.051c0.042-0.034 0.094-0.074 0.148-0.113l0.013-0.009 0.097-0.067 0.069-0.046c0.034-0.023 0.069-0.043 0.104-0.065l0.069-0.041c0.038-0.023 0.077-0.043 0.115-0.065l0.059-0.034c0.025-0.015 0.081-0.043 0.137-0.069l0.032-0.014 0.013-0.006c0.062-0.030 0.123-0.057 0.186-0.082 0.019-0.009 0.041-0.016 0.061-0.024l0.13-0.050 0.074-0.026c0.139-0.050 0.314-0.099 0.493-0.138l0.030-0.006 0.087-0.018c0.087-0.018 0.201-0.036 0.317-0.049l0.019-0.002 0.082-0.009 0.143-0.011c0.023 0 0.047-0.003 0.071-0.003 0.065-0.004 0.14-0.006 0.216-0.006s0.151 0.002 0.226 0.006l-0.010-0c0.023 0 0.046 0.002 0.071 0.005 0.047 0.002 0.095 0.006 0.143 0.011 0.027 0.001 0.055 0.006 0.082 0.008 0.164 0.018 0.308 0.042 0.449 0.074l-0.026-0.005c0.208 0.044 0.383 0.093 0.554 0.153l-0.030-0.009 0.074 0.026 0.13 0.050 0.061 0.023c0.063 0.026 0.126 0.054 0.186 0.083l0.013 0.006c0.057 0.027 0.113 0.055 0.168 0.085l0.059 0.033c0.040 0.021 0.079 0.042 0.117 0.065l0.069 0.041 0.103 0.065 0.070 0.046 0.097 0.069c0.064 0.045 0.116 0.085 0.167 0.126l-0.006-0.005 0.066 0.051c0.089 0.075 0.167 0.145 0.244 0.218l-0.003-0.003 0.057 0.053 0.096 0.099 0.042 0.043c0.046 0.048 0.089 0.098 0.131 0.149l0.017 0.021c0.037 0.045 0.073 0.088 0.109 0.135l0.040 0.055 0.078 0.105 0.045 0.065 0.066 0.101 0.043 0.071 0.058 0.101 0.041 0.074 0.055 0.103 0.038 0.075c0.017 0.037 0.034 0.072 0.049 0.109l0.034 0.074c0.020 0.043 0.045 0.105 0.068 0.168l0.006 0.020 0.047 0.134 0.019 0.057c0.019 0.064 0.039 0.128 0.057 0.194l0.008 0.034c0.014 0.054 0.026 0.109 0.038 0.163l0.015 0.071 0.019 0.104h2.963c0.001 0 0.002 0 0.003 0 0.144 0 0.261-0.116 0.263-0.259v-2.946h-1.125v-1.406h1.125v-1.806c0-0.851-0.523-1.606-1.334-1.922l-2.697-1.051h-10.208v9.391zM30.034 16.197h9.257l-2.598-5.939c-0.294-0.648-0.936-1.090-1.68-1.090-0.004 0-0.009 0-0.013 0h-4.966v7.030zM11.789 30.594c1.638 0 2.969-1.299 2.969-2.897 0-1.597-1.331-2.896-2.969-2.896-0.051 0-0.102 0.001-0.152 0.005-1.365 0.067-2.488 1.038-2.757 2.309-0.027 0.126-0.047 0.274-0.056 0.426l-0 0.008c-0.002 0.040-0.003 0.086-0.003 0.133 0 0.005 0 0.011 0 0.016v-0.001c0 1.598 1.331 2.897 2.968 2.897zM1.441 22.383h1.125v1.406h-1.126v3.131c0 0.041 0.034 0.074 0.077 0.074h5.92l0.021-0.103c0.005-0.024 0.008-0.049 0.014-0.073 0.011-0.054 0.023-0.107 0.038-0.16l0.009-0.038c0.017-0.065 0.037-0.129 0.057-0.194l0.019-0.057 0.046-0.133 0.029-0.072c0.041-0.106 0.068-0.169 0.096-0.231l-0.016 0.040 0.049-0.106c0.011-0.026 0.025-0.051 0.039-0.077l0.053-0.103 0.042-0.074c0.081-0.139 0.151-0.249 0.225-0.356l-0.013 0.019 0.077-0.104 0.042-0.057c0.034-0.045 0.069-0.088 0.106-0.131l0.018-0.023c0.043-0.050 0.087-0.101 0.131-0.149l0.043-0.046 0.096-0.097 0.057-0.054 0.088-0.083 0.063-0.054 0.090-0.075 0.066-0.054c0.039-0.032 0.092-0.071 0.144-0.11l0.016-0.011c0.032-0.023 0.064-0.046 0.097-0.066l0.069-0.047 0.103-0.065 0.069-0.041 0.117-0.065 0.061-0.034c0.055-0.029 0.111-0.056 0.167-0.082 0.005-0.002 0.009-0.006 0.015-0.007 0.061-0.030 0.123-0.057 0.185-0.082l0.191-0.074 0.075-0.026c0.012-0.005 0.052-0.019 0.092-0.031l0.028-0.008c0.101-0.033 0.236-0.069 0.374-0.099l0.030-0.005 0.086-0.019c0.087-0.018 0.201-0.036 0.317-0.049l0.019-0.002 0.082-0.009 0.144-0.011c0.023 0 0.046-0.003 0.070-0.003 0.065-0.004 0.14-0.006 0.216-0.006s0.151 0.002 0.226 0.006l-0.010-0c0.024 0 0.047 0.002 0.071 0.005 0.048 0.002 0.096 0.006 0.143 0.011 0.027 0.001 0.055 0.006 0.082 0.008 0.093 0.010 0.166 0.021 0.239 0.033l-0.024-0.003 0.121 0.021 0.087 0.018c0.138 0.029 0.246 0.056 0.352 0.088l-0.031-0.008 0.082 0.025c0.040 0.011 0.080 0.025 0.119 0.039l0.075 0.026 0.13 0.050 0.061 0.023c0.153 0.064 0.274 0.122 0.391 0.186l-0.024-0.012 0.061 0.033 0.117 0.065 0.069 0.041 0.103 0.065 0.070 0.046 0.096 0.069c0.062 0.043 0.114 0.083 0.165 0.124l-0.005-0.004 0.067 0.054c0.031 0.024 0.061 0.050 0.090 0.075l0.062 0.054 0.146 0.137 0.096 0.098 0.042 0.046c0.085 0.092 0.169 0.191 0.249 0.293l0.008 0.010 0.041 0.055c0.026 0.034 0.053 0.070 0.077 0.105l0.045 0.066c0.051 0.073 0.107 0.161 0.159 0.252l0.010 0.019 0.041 0.074 0.054 0.103 0.038 0.075 0.050 0.109 0.033 0.074c0.017 0.039 0.032 0.078 0.047 0.117l0.027 0.071c0.017 0.045 0.032 0.089 0.047 0.135l0.019 0.055c0.021 0.064 0.039 0.13 0.057 0.194l0.007 0.032c0.015 0.055 0.027 0.111 0.040 0.167l0.013 0.069 0.022 0.106h12.453v-20.891c0-0.389 0.322-0.704 0.72-0.704h10.419c0.017 0 0.072 0 0.106-0.063 0.010-0.016 0.016-0.035 0.016-0.055 0-0.025-0.008-0.047-0.023-0.065l0 0-2.254-3.299c-0.216-0.31-0.571-0.511-0.972-0.511-0.002 0-0.003 0-0.005 0h-18.817c-0 0-0.001 0-0.001 0-0.108 0-0.206 0.043-0.277 0.113l0-0-1.192 1.162c-0.332 0.324-0.787 0.525-1.289 0.525-0.003 0-0.006 0-0.009-0h-12.408c-0.004-0-0.008-0-0.013-0-0.632 0-1.145 0.508-1.154 1.137v18.040z"></path>
<path d="M5.536 7.198h8.814c1.019 0 1.848 0.809 1.848 1.802v4.101c0 0.994-0.83 1.802-1.848 1.802h-8.815c-1.018 0-1.847-0.808-1.847-1.802v-4.101c0-0.994 0.829-1.802 1.848-1.802zM5.129 13.101c0 0.217 0.183 0.397 0.407 0.397h8.814c0.001 0 0.003 0 0.005 0 0.22 0 0.399-0.177 0.402-0.396v-4.101c0-0.218-0.183-0.397-0.407-0.397h-8.815c-0.001 0-0.002 0-0.003 0-0.22 0-0.399 0.177-0.402 0.396v4.101z"></path>
</symbol>
<symbol id="icon-petrol" viewBox="0 0 30 32">
<path d="M26.95 8.050l0.016-0.016-6.2-6.2-1.766 1.766 3.516 3.516c-1.583 0.61-2.686 2.119-2.686 3.886 0 1.151 0.468 2.192 1.223 2.944l0 0c0.754 0.753 1.795 1.218 2.944 1.218 0.603 0 1.177-0.128 1.694-0.359l-0.026 0.011v12.018c0 0.92-0.746 1.666-1.666 1.666s-1.666-0.746-1.666-1.666v0-7.5c0-1.841-1.493-3.334-3.334-3.334v0h-1.666v-11.666c0-1.841-1.493-3.334-3.334-3.334v0h-10c-1.841 0-3.334 1.493-3.334 3.334v0 26.666h16.668v-12.5h2.5v8.334c0 2.301 1.865 4.166 4.166 4.166s4.166-1.865 4.166-4.166v0-15.834c0-1.15-0.466-2.2-1.216-2.95zM14 18.5v9.166h-10v-11.666h10v2.5zM14 12.666h-10v-8.332h10v8.332zM24 12.666c-0.92 0-1.666-0.746-1.666-1.666s0.746-1.666 1.666-1.666v0c0.92 0 1.666 0.746 1.666 1.666s-0.746 1.666-1.666 1.666v0z"></path>
</symbol>
<symbol id="icon-ac" viewBox="0 0 40 32">
<path d="M19.38 0c-0.001 0-0.003 0-0.005 0-1.954 0-3.748 0.683-5.157 1.824l0.015-0.012c-1.413 1.143-2.42 2.736-2.805 4.56l-0.009 0.052-0.144 0.72c-0.022 0.086-0.034 0.185-0.034 0.287 0 0.422 0.215 0.793 0.542 1.010l0.004 0.003c0.196 0.132 0.437 0.21 0.697 0.21 0.615 0 1.127-0.44 1.238-1.023l0.001-0.008 0.148-0.714c0.296-1.387 1.078-2.554 2.156-3.341l0.016-0.011c0.923-0.675 2.081-1.080 3.333-1.080 1.642 0 3.122 0.697 4.16 1.81l0.003 0.003c0.936 1.014 1.456 2.334 1.46 3.706-0.003 1.534-0.633 2.919-1.647 3.915l-0.001 0.001c-1.023 1.004-2.425 1.624-3.973 1.624-0.002 0-0.003 0-0.005 0h-18.122c-0.001 0-0.001 0-0.002 0-0.343 0-0.655 0.137-0.882 0.36l0-0c-0.225 0.221-0.365 0.529-0.365 0.87s0.14 0.649 0.365 0.87l0 0c0.227 0.223 0.538 0.361 0.882 0.362h18.126c2.199-0.052 4.176-0.963 5.616-2.41l0-0c1.426-1.433 2.309-3.408 2.312-5.589v-0.001c-0.003-2.181-0.884-4.155-2.308-5.588l0 0c-1.44-1.447-3.416-2.359-5.606-2.412l-0.010-0zM33.75 11.076c-0.002 0-0.004 0-0.007 0-1.719 0-3.277 0.689-4.414 1.805l0.001-0.001c-1.128 1.107-1.827 2.646-1.83 4.35v0c0 0.328 0.132 0.64 0.366 0.872 0.227 0.224 0.54 0.362 0.884 0.362s0.657-0.138 0.884-0.362l-0 0c0.226-0.222 0.366-0.53 0.366-0.871 0-0 0-0.001 0-0.001v0c0-0.73 0.22-1.444 0.632-2.050 0.412-0.608 0.998-1.080 1.682-1.36 0.424-0.177 0.916-0.28 1.433-0.28 1.033 0 1.971 0.412 2.656 1.081l-0.001-0.001c0.678 0.662 1.099 1.585 1.099 2.607 0 0.512-0.106 0.999-0.296 1.441l0.009-0.024c-0.296 0.688-0.77 1.252-1.366 1.647l-0.014 0.009c-0.618 0.406-1.342 0.622-2.084 0.622h-32.5c-0.001 0-0.001 0-0.002 0-0.343 0-0.655 0.137-0.882 0.36l0-0c-0.226 0.222-0.366 0.53-0.366 0.871s0.14 0.649 0.366 0.871l0 0c0.227 0.223 0.538 0.36 0.882 0.36 0.001 0 0.002 0 0.002 0h24.376c0.828 0.002 1.622 0.328 2.206 0.906 0.586 0.58 0.914 1.36 0.912 2.178-0.002 0.816-0.332 1.598-0.92 2.174-0.573 0.555-1.355 0.897-2.218 0.897-0.776 0-1.487-0.277-2.040-0.737l0.005 0.004c-0.554-0.461-0.942-1.105-1.073-1.837l-0.003-0.019-0.014-0.074c-0.047-0.342-0.231-0.634-0.492-0.824l-0.004-0.002c-0.204-0.149-0.461-0.239-0.738-0.239-0.596 0-1.096 0.414-1.226 0.97l-0.002 0.009c-0.016 0.075-0.026 0.161-0.026 0.249 0 0.085 0.009 0.167 0.025 0.247l-0.001-0.008 0.012 0.074c0.222 1.3 0.904 2.48 1.926 3.33 0.982 0.821 2.259 1.32 3.652 1.32 1.552 0 2.959-0.619 3.989-1.623l-0.001 0.001c1.056-1.040 1.652-2.448 1.654-3.92 0-1.14-0.35-2.196-0.948-3.076h3.448c0.003 0 0.007 0 0.011 0 1.717 0 3.274-0.687 4.41-1.801l-0.001 0.001c1.172-1.156 1.83-2.72 1.83-4.354 0-1.632-0.66-3.196-1.83-4.35-1.136-1.115-2.694-1.804-4.413-1.804-0.002 0-0.005 0-0.007 0h0z"></path>
</symbol>
<symbol id="icon-star" viewBox="0 0 32 32">
<path fill="#f2f4f7" style="fill: var(--color2, #f2f4f7)" d="M12.4 9.394l3.6-6.822 3.6 6.822c0.318 0.604 0.9 1.024 1.57 1.14l7.6 1.316-5.374 5.532c-0.385 0.396-0.622 0.937-0.622 1.533 0 0.11 0.008 0.219 0.024 0.325l-0.001-0.012 1.096 7.636-6.92-3.404c-0.283-0.142-0.617-0.226-0.971-0.226s-0.688 0.083-0.984 0.232l0.013-0.006-6.924 3.404 1.1-7.636c0.014-0.094 0.022-0.202 0.022-0.313 0-0.596-0.237-1.138-0.623-1.534l0.001 0-5.378-5.532 7.6-1.314c0.687-0.122 1.254-0.547 1.566-1.13l0.006-0.012z"></path>
<path fill="#f2f4f7" style="fill: var(--color2, #f2f4f7)" d="M16 0l-4.66 8.836c-0.144 0.27-0.402 0.462-0.708 0.515l-0.006 0.001-9.846 1.702 6.966 7.166c0.174 0.179 0.281 0.424 0.281 0.693 0 0.052-0.004 0.103-0.012 0.152l0.001-0.006-1.422 9.888 8.964-4.41c0.129-0.065 0.281-0.103 0.442-0.103s0.313 0.038 0.448 0.106l-0.006-0.003 8.964 4.41-1.42-9.888c-0.007-0.045-0.011-0.096-0.011-0.149 0-0.269 0.106-0.513 0.279-0.692l-0 0 6.964-7.164-9.842-1.702c-0.312-0.054-0.571-0.246-0.713-0.511l-0.003-0.005zM16 5.144l2.54 4.81c0.49 0.93 1.388 1.586 2.424 1.764l5.364 0.926-3.792 3.902c-0.596 0.612-0.964 1.449-0.964 2.372 0 0.169 0.012 0.336 0.036 0.498l-0.002-0.018 0.776 5.384-4.882-2.4c-0.438-0.22-0.954-0.349-1.5-0.349s-1.062 0.129-1.52 0.358l0.020-0.009-4.882 2.4 0.776-5.384c0.022-0.144 0.034-0.311 0.034-0.48 0-0.923-0.368-1.76-0.965-2.373l0.001 0.001-3.792-3.9 5.364-0.928c1.038-0.18 1.934-0.834 2.424-1.764z"></path>
</symbol>
<symbol id="icon-star-yellow" viewBox="0 0 32 32">
<path fill="#ffc531" style="fill: var(--color2, #ffc531)" d="M12.4 9.394l3.6-6.822 3.6 6.822c0.318 0.604 0.9 1.024 1.57 1.14l7.6 1.316-5.374 5.532c-0.385 0.396-0.622 0.937-0.622 1.533 0 0.11 0.008 0.219 0.024 0.325l-0.001-0.012 1.096 7.636-6.92-3.404c-0.283-0.142-0.617-0.226-0.971-0.226s-0.688 0.083-0.984 0.232l0.013-0.006-6.924 3.404 1.1-7.636c0.014-0.094 0.022-0.202 0.022-0.313 0-0.596-0.237-1.138-0.623-1.534l0.001 0-5.378-5.532 7.6-1.314c0.687-0.122 1.254-0.547 1.566-1.13l0.006-0.012z"></path>
<path fill="#ffc531" style="fill: var(--color2, #ffc531)" d="M16 0l-4.66 8.836c-0.144 0.27-0.402 0.462-0.708 0.515l-0.006 0.001-9.846 1.702 6.966 7.166c0.174 0.179 0.281 0.424 0.281 0.693 0 0.052-0.004 0.103-0.012 0.152l0.001-0.006-1.422 9.888 8.964-4.41c0.129-0.065 0.281-0.103 0.442-0.103s0.313 0.038 0.448 0.106l-0.006-0.003 8.964 4.41-1.42-9.888c-0.007-0.045-0.011-0.096-0.011-0.149 0-0.269 0.106-0.513 0.279-0.692l-0 0 6.964-7.164-9.842-1.702c-0.312-0.054-0.571-0.246-0.713-0.511l-0.003-0.005zM16 5.144l2.54 4.81c0.49 0.93 1.388 1.586 2.424 1.764l5.364 0.926-3.792 3.902c-0.596 0.612-0.964 1.449-0.964 2.372 0 0.169 0.012 0.336 0.036 0.498l-0.002-0.018 0.776 5.384-4.882-2.4c-0.438-0.22-0.954-0.349-1.5-0.349s-1.062 0.129-1.52 0.358l0.020-0.009-4.882 2.4 0.776-5.384c0.022-0.144 0.034-0.311 0.034-0.48 0-0.923-0.368-1.76-0.965-2.373l0.001 0.001-3.792-3.9 5.364-0.928c1.038-0.18 1.934-0.834 2.424-1.764z"></path>
</symbol>
<symbol id="icon-bed" viewBox="0 0 32 32">
<path d="M8.496 4.88c-1.995 0.006-3.61 1.622-3.616 3.615v0.001c0 0 0 0.001 0 0.002s0 0.001 0 0.002v-0 6.264c-0.493 0.245-1.099 0.224-1.496 0.621-0.925 0.925-1.499 2.201-1.504 3.612v0.001c0 0 0 0.001 0 0.002s0 0.001 0 0.002v-0 7c0 0.619 0.501 1.12 1.12 1.12v0c0.619 0 1.12-0.501 1.12-1.12v0-7c0.007-1.588 1.292-2.873 2.879-2.88h18.001c1.588 0.007 2.873 1.292 2.88 2.879v7.001c0 0.619 0.501 1.12 1.12 1.12v0c0.619 0 1.12-0.501 1.12-1.12v0-7c0-0 0-0.001 0-0.002s0-0.001 0-0.002v0c-0.005-1.411-0.579-2.688-1.504-3.613l-0-0c-0.397-0.397-1.003-0.376-1.498-0.621v-6.264c0-0 0-0.001 0-0.001s0-0.001 0-0.001v0c-0.006-1.995-1.622-3.61-3.615-3.616h-0.001c-0 0-0.001 0-0.002 0s-0.001 0-0.002 0h-15c-0 0-0.001 0-0.001 0s-0.001 0-0.001 0h0zM8.501 7.12h15c0.76 0.005 1.375 0.619 1.381 1.379v5.383h-17.762v-5.382c0.005-0.76 0.619-1.375 1.379-1.381h0.001z"></path>
<path d="M8.997 10.88c-1.719 0.005-3.111 1.398-3.115 3.116v0c0 0 0 0.001 0 0.002s0 0.001 0 0.002v-0 1c0 0 0 0 0 0 0 0.618 0.501 1.119 1.118 1.12h0c0.619 0 1.12-0.501 1.12-1.12v0-1c0.004-0.485 0.395-0.876 0.88-0.88h5c0.485 0.004 0.876 0.395 0.88 0.88v1c0 0.619 0.501 1.12 1.12 1.12v0c0.619 0 1.12-0.501 1.12-1.12v0-1c0.004-0.485 0.395-0.876 0.88-0.88h5c0.486 0.004 0.878 0.397 0.88 0.883v0.997c0 0.619 0.501 1.12 1.12 1.12v0c0.619 0 1.12-0.501 1.12-1.12v0-1c0-0 0-0.001 0-0.002s0-0.001 0-0.002v0c-0.005-1.719-1.397-3.112-3.116-3.115h-0c-0 0-0.001 0-0.002 0s-0.001 0-0.002 0h-5c-0 0-0.001 0-0.002 0s-0.001 0-0.002 0h0c-0.749 0.002-1.434 0.344-1.997 0.832-0.563-0.488-1.248-0.83-1.997-0.832-0 0-0.001 0-0.002 0s-0.001 0-0.002 0h-5c-0 0-0.001 0-0.002 0s-0.001 0-0.002 0h0zM4.498 22.88c-1.444 0.004-2.613 1.174-2.616 2.617v0c0 0 0 0.001 0 0.002s0 0.001 0 0.002v-0 0.499c0 0 0 0 0 0 0 0.618 0.501 1.119 1.118 1.12h0c0.619 0 1.12-0.501 1.12-1.12v0-0.501c0.003-0.209 0.171-0.377 0.379-0.381h23c0.101 0 0.195 0.042 0.267 0.112 0.001 0.001 0.002 0.002 0.003 0.003l0 0c0.070 0.072 0.112 0.166 0.112 0.267v0.499c0 0 0 0 0 0 0 0.618 0.501 1.119 1.118 1.12h0c0.619 0 1.12-0.501 1.12-1.12v0-0.501c0-0 0-0.001 0-0.001s0-0.001 0-0.001v0c-0.003-1.444-1.173-2.614-2.617-2.616h-0c-0 0-0.001 0-0.002 0s-0.001 0-0.002 0h-23c-0 0-0.001 0-0.001 0s-0.001 0-0.001 0h0z"></path>
</symbol>
<symbol id="icon-calendar" viewBox="0 0 32 32">
<path d="M6.666 4.134c-2.131 0.010-3.856 1.735-3.866 3.865v18.667c0.010 2.132 1.734 3.857 3.864 3.869h18.67c2.131-0.012 3.856-1.737 3.866-3.868v-18.667c-0.010-2.131-1.735-3.856-3.865-3.866h-0.001zM6.666 6.534h18.669c0.824 0 1.466 0.64 1.466 1.466v18.666c0 0.824-0.64 1.469-1.466 1.469h-18.669c-0.005 0-0.010 0-0.016 0-0.801 0-1.45-0.649-1.45-1.45 0-0.007 0-0.014 0-0.020v0.001-18.666c0-0.824 0.64-1.466 1.466-1.466z"></path>
<path d="M21.334 1.466c-0.663 0-1.2 0.537-1.2 1.2v0 5.334c0 0.663 0.537 1.2 1.2 1.2v0c0.663 0 1.2-0.537 1.2-1.2v0-5.334c0-0.663-0.537-1.2-1.2-1.2v0zM10.666 1.466c-0.663 0-1.2 0.537-1.2 1.2v0 5.334c0 0.663 0.537 1.2 1.2 1.2v0c0.663 0 1.2-0.537 1.2-1.2v0-5.334c0-0.663-0.537-1.2-1.2-1.2v0zM4 12.134c-0.663 0-1.2 0.537-1.2 1.2v0c0 0.663 0.537 1.2 1.2 1.2v0h24c0.663 0 1.2-0.537 1.2-1.2v0c0-0.663-0.537-1.2-1.2-1.2v0z"></path>
</symbol>
<symbol id="icon-map-pin" viewBox="0 0 29 32">
<path d="M14.4 0.134c-7.289 0.002-13.198 5.911-13.2 13.2v0c0 5.181 3.227 9.717 6.328 12.992 3.101 3.272 6.206 5.339 6.206 5.339 0.187 0.126 0.418 0.201 0.666 0.201s0.479-0.075 0.67-0.204l-0.004 0.003s3.104-2.067 6.206-5.341c3.101-3.274 6.328-7.808 6.328-12.99-0.002-7.289-5.911-13.198-13.2-13.2h-0zM14.4 2.534c5.965 0 10.8 4.835 10.8 10.8v0c0 4.152-2.773 8.28-5.672 11.341-2.565 2.707-4.573 4.035-5.128 4.419-0.555-0.384-2.563-1.712-5.128-4.419-2.899-3.061-5.672-7.189-5.672-11.341 0-5.965 4.835-10.8 10.8-10.8v0z"></path>
<path d="M14.4 8.134c-2.868 0.010-5.19 2.332-5.2 5.199v0.001c0.010 2.868 2.332 5.19 5.199 5.2h0.001c2.868-0.010 5.19-2.332 5.2-5.199v-0.001c-0.010-2.868-2.332-5.19-5.199-5.2h-0.001zM14.4 10.534c1.56 0 2.8 1.24 2.8 2.8s-1.24 2.8-2.8 2.8-2.8-1.24-2.8-2.8 1.24-2.8 2.8-2.8z"></path>
</symbol>
<symbol id="icon-air-conditioner" viewBox="0 0 32 32">
<path d="M3.429-0.056c-0 0-0.001 0-0.002 0-0.962 0-1.833 0.389-2.464 1.019l0-0c-0.63 0.631-1.019 1.502-1.019 2.464 0 0 0 0 0 0v0 11.429c0 1.925 1.56 3.486 3.485 3.488h25.143c1.925-0.003 3.484-1.563 3.485-3.488v-11.427c-0.002-1.924-1.561-3.483-3.485-3.485h-0zM3.429 2.344h25.142c0.288 0 0.562 0.112 0.766 0.315 0.001 0.001 0.002 0.002 0.003 0.003l0 0c0.195 0.195 0.315 0.464 0.315 0.761 0 0.002 0 0.004 0 0.005v-0 11.427c0 0.288-0.112 0.565-0.315 0.768-0 0-0.001 0-0.002 0s-0.001 0-0.002 0h0c-0.196 0.197-0.467 0.32-0.766 0.32h-25.142c-0.599-0.002-1.085-0.488-1.085-1.088 0 0 0 0 0 0v0-11.427c0-0.599 0.486-1.085 1.085-1.085v0z"></path>
<path d="M9.144 9.085c-1.926 0.001-3.487 1.562-3.488 3.488v4.571c0 0.663 0.537 1.2 1.2 1.2v0c0.663 0 1.2-0.537 1.2-1.2v0-4.573c0-0.601 0.487-1.088 1.088-1.088v0h13.712c0.601 0 1.088 0.487 1.088 1.088v0 4.573c0 0.663 0.537 1.2 1.2 1.2v0c0.663 0 1.2-0.537 1.2-1.2v0-4.573c0-1.926-1.562-3.488-3.488-3.488v0zM9.144 21.656c-0.663 0-1.2 0.537-1.2 1.2v0 2.515c0 0.531-0.213 1.038-0.587 1.413-0.361 0.362-0.861 0.587-1.413 0.587h-0.229c-0.663 0-1.2 0.537-1.2 1.2v0c0 0.663 0.537 1.2 1.2 1.2v0h0.229c1.166 0 2.285-0.462 3.109-1.286 0-0 0-0.001 0-0.002s0-0.001 0-0.002v0c0.797-0.796 1.29-1.895 1.291-3.11v-2.515c0-0.663-0.537-1.2-1.2-1.2v0zM16 21.656c-0.663 0-1.2 0.537-1.2 1.2v0 8c0 0.663 0.537 1.2 1.2 1.2v0c0.663 0 1.2-0.537 1.2-1.2v0-8c0-0.663-0.537-1.2-1.2-1.2v0zM22.856 21.656c-0.663 0-1.2 0.537-1.2 1.2v0 2.515c0 1.168 0.466 2.285 1.291 3.11 0 0 0 0.001 0 0.002s0 0.001 0 0.002v-0c0.796 0.795 1.894 1.286 3.108 1.286 0 0 0.001 0 0.001 0h0.229c0.663 0 1.2-0.537 1.2-1.2v0c0-0.663-0.537-1.2-1.2-1.2v0h-0.229c-0.531 0-1.037-0.211-1.413-0.587-0.362-0.361-0.587-0.861-0.587-1.413v-2.515c0-0.663-0.537-1.2-1.2-1.2v0z"></path>
</symbol>
<symbol id="icon-cd" viewBox="0 0 32 32">
<path d="M16 2.8c-7.275 0-13.2 5.925-13.2 13.2s5.925 13.2 13.2 13.2c7.275 0 13.2-5.925 13.2-13.2s-5.925-13.2-13.2-13.2zM16 5.2c0.005 0 0.011 0 0.018 0 5.955 0 10.782 4.827 10.782 10.782 0 0.006 0 0.012-0 0.019v-0.001c0 0.005 0 0.011 0 0.018 0 5.955-4.827 10.782-10.782 10.782-0.006 0-0.012 0-0.019-0h0.001c-0.005 0-0.011 0-0.018 0-5.955 0-10.782-4.827-10.782-10.782 0-0.006 0-0.012 0-0.019v0.001c0-0.005 0-0.011 0-0.018 0-5.955 4.827-10.782 10.782-10.782 0.006 0 0.012 0 0.019 0h-0.001z"></path>
<path d="M16 7.466c-4.709 0.011-8.524 3.825-8.534 8.533v0.001c0 0.663 0.537 1.2 1.2 1.2v0c0.663 0 1.2-0.537 1.2-1.2v0c-0-0.005-0-0.011-0-0.018 0-3.378 2.739-6.117 6.117-6.117 0.006 0 0.012 0 0.019 0h-0.001c0.663 0 1.2-0.537 1.2-1.2v0c0-0.663-0.537-1.2-1.2-1.2v0z"></path>
<path d="M16 11.466c-2.5 0.011-4.524 2.034-4.534 4.533v0.001c0.011 2.5 2.034 4.524 4.533 4.534h0.001c2.5-0.011 4.524-2.035 4.534-4.533v-0.001c-0.011-2.5-2.035-4.524-4.533-4.534h-0.001zM16 13.866c1.192 0 2.134 0.942 2.134 2.134s-0.942 2.134-2.134 2.134c-0.005 0-0.011 0-0.018 0-1.169 0-2.117-0.948-2.117-2.117 0-0.006 0-0.012 0-0.019v0.001c0-1.192 0.942-2.134 2.134-2.134z"></path>
</symbol>
<symbol id="icon-radio" viewBox="0 0 32 32">
<path d="M13.334 6.96c-2.514 0-4.421-0.005-5.99 0.206-1.571 0.211-2.872 0.683-3.85 1.662-0.979 0.976-1.451 2.277-1.664 3.846-0.21 1.57-0.202 3.477-0.202 5.99s-0.008 4.421 0.203 5.99c0.211 1.571 0.683 2.872 1.662 3.85 0.976 0.979 2.278 1.451 3.85 1.664 1.57 0.21 3.477 0.202 5.99 0.202h5.331c2.514 0 4.421 0.008 5.99-0.203 1.571-0.211 2.872-0.683 3.85-1.662 0.979-0.976 1.451-2.278 1.664-3.85 0.21-1.57 0.202-3.477 0.202-5.99s0.008-4.421-0.203-5.99c-0.211-1.571-0.683-2.869-1.662-3.846-0.976-0.979-2.278-1.451-3.85-1.664-1.57-0.21-3.477-0.205-5.99-0.205zM13.334 9.040h5.331c2.514 0 4.381 0.005 5.715 0.186 1.334 0.179 2.070 0.488 2.653 1.072 0.584 0.582 0.893 1.322 1.072 2.656 0.181 1.334 0.189 3.198 0.189 5.712s-0.008 4.381-0.189 5.715c-0.179 1.334-0.488 2.070-1.072 2.653-0.582 0.584-1.318 0.893-2.653 1.072-1.334 0.181-3.2 0.189-5.715 0.189h-5.331c-2.514 0-4.381-0.008-5.715-0.189-1.334-0.179-2.070-0.488-2.653-1.072-0.584-0.582-0.893-1.318-1.072-2.653-0.181-1.334-0.189-3.2-0.189-5.715 0-2.514 0.008-4.378 0.189-5.712 0.179-1.334 0.488-2.074 1.072-2.656 0.582-0.584 1.318-0.893 2.653-1.072 1.334-0.181 3.2-0.186 5.715-0.186z"></path>
<path d="M9.334 10.96c-2.045 0.004-3.702 1.661-3.706 3.705v0c0 0.982 0.389 1.926 1.083 2.622 0.671 0.669 1.597 1.083 2.619 1.083 0.001 0 0.002 0 0.003 0h13.331c2.046-0.002 3.704-1.66 3.706-3.705v-0c0-0.001 0-0.003 0-0.005 0-2.044-1.657-3.701-3.701-3.701-0.002 0-0.003 0-0.005 0h0zM9.334 13.040h13.331c0.003-0 0.006-0 0.010-0 0.896 0 1.622 0.726 1.622 1.622 0 0.451-0.184 0.859-0.482 1.153l-0 0c-0.306 0.304-0.718 0.478-1.15 0.478h-13.331c-0.899 0-1.627-0.729-1.627-1.627s0.729-1.627 1.627-1.627v0zM10 19.629c-0 0-0.001 0-0.002 0-1.679 0-3.040 1.361-3.040 3.040s1.361 3.040 3.040 3.040c0.841 0 1.602-0.341 2.152-0.893l0-0c0.55-0.551 0.89-1.311 0.89-2.15s-0.34-1.6-0.89-2.15l0 0c-0.55-0.548-1.308-0.886-2.146-0.886-0.002 0-0.003 0-0.005 0h0zM10 21.706c0.001 0 0.002 0 0.003 0 0.528 0 0.957 0.428 0.957 0.957 0 0.001 0 0.002 0 0.003v-0c-0.001 0.53-0.43 0.96-0.96 0.963h-0c-0.001 0-0.002 0-0.003 0-0.528 0-0.957-0.428-0.957-0.957 0-0.002 0-0.005 0-0.007v0c0-0.001 0-0.002 0-0.003 0-0.528 0.428-0.957 0.957-0.957 0.001 0 0.002 0 0.003 0h-0z"></path>
<path d="M19.557 1.725l-11.333 5.334c-0.357 0.17-0.599 0.528-0.599 0.942 0 0.161 0.036 0.313 0.101 0.448l-0.003-0.006c0.171 0.355 0.527 0.595 0.94 0.595 0.161 0 0.314-0.037 0.45-0.102l-0.006 0.003 11.334-5.333c0.354-0.171 0.594-0.527 0.594-0.94 0-0.16-0.036-0.312-0.101-0.447l0.003 0.006c-0.17-0.357-0.528-0.599-0.942-0.599-0.16 0-0.312 0.036-0.447 0.101l0.006-0.003zM20 14.294c-0.574 0-1.040 0.466-1.040 1.040v0 2c0 0.574 0.466 1.040 1.040 1.040v0c0.574 0 1.040-0.466 1.040-1.040v0-2c0-0.574-0.466-1.040-1.040-1.040v0zM17.334 21.629c0 0 0 0 0 0-0.573 0-1.038 0.464-1.040 1.037v0c0 0.574 0.466 1.040 1.040 1.040v0h6.666c0.574 0 1.040-0.466 1.040-1.040v0c-0.002-0.573-0.467-1.037-1.040-1.037 0 0 0 0 0 0v0z"></path>
</symbol>
<symbol id="icon-hub" viewBox="0 0 32 32">
<path d="M4 5.466c-1.4 0-2.534 1.135-2.534 2.534v0 17.334c0.003 1.398 1.136 2.53 2.534 2.531h24c0 0 0.001 0 0.002 0 1.398 0 2.532-1.133 2.533-2.531v-17.335c0-1.4-1.135-2.534-2.534-2.534v0h-16zM4 7.866h6.8v17.6h-6.8c-0.001 0-0.003 0-0.005 0-0.035 0-0.067-0.014-0.090-0.037v0c-0.025-0.024-0.040-0.057-0.040-0.094 0-0 0-0 0-0v0-17.334c0-0.035 0.016-0.069 0.040-0.094 0.024-0.025 0.057-0.040 0.094-0.040h0zM13.2 7.866h14.8c0.035 0 0.069 0.016 0.094 0.040 0.025 0.024 0.040 0.057 0.040 0.094v17.334c0 0.035-0.016 0.069-0.040 0.094-0.023 0.023-0.055 0.037-0.090 0.037-0.002 0-0.003-0-0.005-0h-14.8z"></path>
<path d="M24.464 9.485c-0.322 0.057-0.595 0.236-0.774 0.486l-0.002 0.004-8 11.334c-0.137 0.193-0.22 0.433-0.22 0.692 0 0.403 0.199 0.76 0.504 0.978l0.004 0.002c0.192 0.137 0.432 0.218 0.69 0.218 0.403 0 0.76-0.199 0.978-0.504l0.003-0.004 8-11.331c0.137-0.193 0.22-0.433 0.22-0.692 0-0.403-0.199-0.76-0.504-0.978l-0.004-0.002c-0.193-0.138-0.433-0.22-0.693-0.22-0.072 0-0.142 0.006-0.21 0.018l0.007-0.001zM7.334 10.134c-0.663 0-1.2 0.537-1.2 1.2v0 2.666c0 0.663 0.537 1.2 1.2 1.2v0c0.663 0 1.2-0.537 1.2-1.2v0-2.666c0-0.663-0.537-1.2-1.2-1.2v0z"></path>
<path d="M8.667 18c0-0.737-0.597-1.334-1.334-1.334s-1.334 0.597-1.334 1.334v0c0 0.737 0.597 1.334 1.334 1.334s1.334-0.597 1.334-1.334v0zM8.667 22c0-0.737-0.597-1.334-1.334-1.334s-1.334 0.597-1.334 1.334v0c0 0.737 0.597 1.334 1.334 1.334s1.334-0.597 1.334-1.334v0z"></path>
</symbol>
<symbol id="icon-toilet-paper" viewBox="0 0 32 32">
<path d="M24 4c1.939 0 3.269 1.648 4.040 3.312 0.762 1.654 1.224 3.811 1.286 6.147l0.006 0.541v12.667c0 0.001 0 0.002 0 0.003 0 0.735-0.596 1.331-1.331 1.331-0.019 0-0.038-0-0.057-0.001l0.003 0-0.166-0.019-3.781-0.629-3.781 0.629c-0.066 0.012-0.142 0.018-0.22 0.018-0.093 0-0.184-0.010-0.272-0.028l0.009 0.002-0.157-0.042-3.579-1.192-3.579 1.192c-0.126 0.043-0.27 0.068-0.421 0.068-0.68 0-1.241-0.509-1.323-1.167l-0.001-0.006-0.010-0.16v-3.902c-0.709 0.734-1.595 1.237-2.667 1.237-1.939 0-3.269-1.648-4.040-3.312-0.819-1.781-1.293-4.147-1.293-6.688s0.472-4.907 1.293-6.688c0.736-1.59 1.981-3.163 3.779-3.301l0.261-0.011h16zM24 6.667h-12.291c0.12 0.213 0.23 0.429 0.33 0.646 0.821 1.779 1.296 4.144 1.296 6.686v10.816l2.245-0.747c0.126-0.043 0.27-0.068 0.421-0.068s0.295 0.025 0.43 0.071l-0.009-0.003 3.688 1.229 3.672-0.613c0.066-0.012 0.142-0.018 0.219-0.018s0.153 0.007 0.227 0.019l-0.008-0.001 2.448 0.408v-11.093c0-2.245-0.424-4.213-1.050-5.568-0.677-1.472-1.347-1.765-1.618-1.765zM8 6.667c-0.272 0-0.941 0.293-1.616 1.763-0.629 1.357-1.051 3.325-1.051 5.57s0.422 4.213 1.050 5.568c0.677 1.472 1.347 1.765 1.618 1.765 0.272 0 0.939-0.293 1.616-1.763 0.627-1.357 1.051-3.325 1.051-5.57s-0.424-4.213-1.050-5.568c-0.678-1.472-1.347-1.766-1.618-1.766zM8 11.333c0.736 0 1.333 1.194 1.333 2.667 0 1.472-0.597 2.667-1.333 2.667s-1.333-1.194-1.333-2.667c0-1.472 0.597-2.667 1.333-2.667z"></path>
</symbol>
<symbol id="icon-freezer" viewBox="0 0 32 32">
<path d="M8.606 1.96c-1.675 0.009-3.031 1.365-3.040 3.039v20.388c0 1.667 1.373 3.040 3.040 3.040h14.794c1.675-0.009 3.031-1.365 3.040-3.039v-20.388c-0.009-1.675-1.365-3.031-3.039-3.040h-0.001zM8.606 4.040h14.794c0.542 0 0.96 0.418 0.96 0.96v20.387c0 0.544-0.418 0.96-0.96 0.96h-14.794c-0.005 0-0.010 0-0.016 0-0.521 0-0.944-0.423-0.944-0.944 0-0.006 0-0.011 0-0.017v0.001-20.387c0-0.544 0.416-0.96 0.96-0.96z"></path>
<path d="M10.312 5.488c-0.574 0-1.040 0.466-1.040 1.040v0 4.038c0 0.574 0.466 1.040 1.040 1.040v0c0.574 0 1.040-0.466 1.040-1.040v0-4.038c0-0.574-0.466-1.040-1.040-1.040v0zM6.608 12.088c-0.574 0-1.040 0.466-1.040 1.040v0c0.001 0.574 0.466 1.038 1.040 1.038h18.784c0 0 0 0 0 0 0.574 0 1.039-0.465 1.040-1.038v-0c0-0.574-0.466-1.040-1.040-1.040v0zM10.314 14.36c-0.574 0-1.040 0.466-1.040 1.040v0 4.040c0 0.574 0.466 1.040 1.040 1.040v0c0.574 0 1.040-0.466 1.040-1.040v-4.040c0-0.574-0.466-1.040-1.040-1.040v0zM8.43 26.347c-0.574 0-1.040 0.466-1.040 1.040v0 0.701c0 0 0 0.001 0 0.002 0 1.072 0.865 1.942 1.935 1.95h0.001c0.001 0 0.003 0 0.005 0s0.003 0 0.005 0h1.648c1.078-0.001 1.951-0.874 1.952-1.952v-0.701c0-0.574-0.466-1.040-1.040-1.040v0c-0.574 0-1.040 0.466-1.040 1.040v0 0.573h-1.389v-0.573c0 0 0 0 0 0 0-0.573-0.464-1.038-1.037-1.040h-0zM20.102 26.347c-0.574 0-1.040 0.466-1.040 1.040v0 0.701c0.002 1.077 0.875 1.95 1.952 1.952h1.653c1.077-0.002 1.95-0.875 1.952-1.952v-0.701c0 0 0 0 0 0 0-0.573-0.464-1.038-1.037-1.040h-0c-0.574 0-1.040 0.466-1.040 1.040v0 0.573h-1.4v-0.573c0-0.574-0.466-1.040-1.040-1.040v0z"></path>
</symbol>
<symbol id="icon-gas" viewBox="0 0 32 32">
<path d="M25.072 13.992c-0.368-0.454-0.816-0.848-1.232-1.24-1.072-0.906-2.288-1.557-3.312-2.509-2.384-2.206-2.912-5.848-1.392-8.643-1.52 0.347-2.848 1.133-3.982 1.995-4.144 3.142-5.776 8.688-3.824 13.448 0.064 0.152 0.128 0.304 0.128 0.499 0 0.333-0.24 0.635-0.56 0.755-0.368 0.152-0.752 0.061-1.056-0.181-0.090-0.070-0.165-0.155-0.222-0.252l-0.002-0.004c-1.808-2.162-2.096-5.259-0.88-7.738-2.67 2.054-4.126 5.531-3.918 8.81 0.096 0.755 0.192 1.512 0.464 2.267 0.224 0.906 0.656 1.813 1.136 2.614 1.728 2.614 4.72 4.488 7.936 4.864 3.422 0.41 7.085-0.179 9.709-2.416 2.928-2.509 3.952-6.528 2.448-9.974l-0.208-0.392c-0.336-0.696-1.232-1.904-1.232-1.904zM20.016 23.512c-0.448 0.362-1.184 0.755-1.76 0.906-1.792 0.605-3.582-0.24-4.638-1.238 1.904-0.422 3.040-1.752 3.376-3.098 0.272-1.21-0.24-2.206-0.448-3.37-0.192-1.12-0.16-2.070 0.272-3.114 0.304 0.574 0.624 1.149 1.008 1.602 1.232 1.512 3.168 2.176 3.584 4.232 0.064 0.211 0.096 0.422 0.096 0.65 0.048 1.238-0.528 2.598-1.488 3.43z"></path>
</symbol>
<symbol id="icon-water" viewBox="0 0 32 32">
<path d="M16 2.294c-0.592 0.001-1.122 0.265-1.479 0.681l-0.002 0.003c-1.014 1.187-3.155 3.803-5.069 6.92-1.912 3.115-3.65 6.704-3.65 10.102 0 3.013 0.971 5.608 2.781 7.419 1.811 1.81 4.406 2.781 7.419 2.781s5.608-0.971 7.419-2.781c1.81-1.811 2.781-4.406 2.781-7.419 0-3.398-1.738-6.987-3.65-10.102-1.914-3.117-4.054-5.733-5.069-6.92-0.36-0.419-0.89-0.683-1.482-0.683h-0zM16 5.006c1.035 1.229 2.824 3.411 4.502 6.147 1.808 2.944 3.298 6.318 3.298 8.846 0 2.51-0.768 4.413-2.078 5.722-1.309 1.309-3.211 2.078-5.722 2.078s-4.413-0.768-5.722-2.078c-1.309-1.309-2.078-3.211-2.078-5.722 0-2.528 1.488-5.902 3.296-8.848 1.682-2.736 3.47-4.915 4.504-6.144z"></path>
<path d="M21.501 19.301c-0.663 0-1.2 0.537-1.2 1.2v0c0 1.822-1.477 3.299-3.299 3.299-0.001 0-0.001 0-0.002 0h0c-0.663 0-1.2 0.537-1.2 1.2v0c0 0.663 0.537 1.2 1.2 1.2v0c3.148-0.001 5.7-2.553 5.701-5.701v-0c0-0.663-0.537-1.2-1.2-1.2v0z"></path>
</symbol>
<symbol id="icon-microwave" viewBox="0 0 32 32">
<path d="M2.285 4.594c-1.249 0.001-2.261 1.013-2.262 2.262v18.288c0 1.25 1.013 2.262 2.262 2.262v0h27.43c1.249-0.001 2.262-1.013 2.262-2.262v-18.288c-0.001-1.249-1.013-2.261-2.262-2.262h-0zM2.285 6.834h27.43c0.006 0 0.011 0.002 0.016 0.006 0.004 0.004 0.006 0.009 0.006 0.015 0 0 0 0.001-0 0.001v-0 18.288c0 0 0 0.001 0 0.001 0 0.006-0.002 0.011-0.006 0.015v0c-0.004 0.004-0.009 0.006-0.014 0.006-0.001 0-0.001-0-0.002-0h-27.43c-0 0-0.001 0-0.001 0-0.006 0-0.011-0.002-0.015-0.006v0c-0.004-0.004-0.006-0.009-0.006-0.015 0-0 0-0.001 0-0.001v0-18.288c0-0.006 0.002-0.011 0.006-0.016 0.004-0.004 0.009-0.006 0.014-0.006 0.001 0 0.001 0 0.002 0h-0z"></path>
<path d="M6.856 9.166c-1.249 0.001-2.261 1.013-2.262 2.262v9.143c0.001 1.249 1.013 2.261 2.262 2.262h12.573c1.249-0.001 2.261-1.013 2.262-2.262v-9.143c-0.001-1.249-1.013-2.261-2.262-2.262h-0zM25.144 10.309c-0 0-0.001 0-0.002 0-0.619 0-1.12 0.501-1.12 1.12v0c0 0.619 0.501 1.12 1.12 1.12v0h1.142c0.619 0 1.12-0.501 1.12-1.12v0c0-0.619-0.501-1.12-1.12-1.12v0zM6.856 11.406h12.573c0.006 0 0.011 0.002 0.016 0.006 0.003 0.003 0.005 0.008 0.005 0.013 0 0.001-0 0.002-0 0.003v-0 9.142c0 0 0 0.001 0 0.002 0 0.006-0.003 0.011-0.006 0.014l-0 0c-0.004 0.004-0.009 0.006-0.015 0.006-0 0-0.001 0-0.001-0h-12.57c-0 0-0.001 0-0.002 0-0.006 0-0.011-0.003-0.014-0.006l-0-0c-0.004-0.004-0.006-0.009-0.006-0.015 0-0 0-0.001 0-0.001v0-9.142c0-0.006 0.003-0.011 0.006-0.016s0.009-0.006 0.014-0.006c0.001 0 0.001 0 0.002 0h-0zM25.144 14.88c-0 0-0.001 0-0.002 0-0.618 0-1.119 0.501-1.12 1.118v0c0 0.619 0.501 1.12 1.12 1.12v0h1.142c0.619 0 1.12-0.501 1.12-1.12v0c0-0.619-0.501-1.12-1.12-1.12v0z"></path>
</symbol>
<symbol id="icon-route" viewBox="0 0 32 32">
<path d="M6.667 4c-0.019-0.001-0.042-0.001-0.065-0.001-1.473 0-2.667 1.194-2.667 2.667s1.194 2.667 2.667 2.667c0.023 0 0.046-0 0.069-0.001l-0.003 0c1.445-0.037 2.602-1.216 2.602-2.666s-1.157-2.63-2.598-2.666l-0.003-0zM1.333 6.667c0-2.946 2.388-5.334 5.334-5.334s5.334 2.388 5.334 5.334v0c0 2.946-2.388 5.334-5.334 5.334s-5.334-2.388-5.334-5.334v0zM25.333 22.667c-0.019-0-0.042-0.001-0.065-0.001-1.473 0-2.667 1.194-2.667 2.667s1.194 2.667 2.667 2.667c0.023 0 0.046-0 0.069-0.001l-0.003 0c1.445-0.037 2.602-1.216 2.602-2.666s-1.157-2.63-2.599-2.666l-0.003-0zM20 25.333c0-2.946 2.388-5.334 5.334-5.334s5.334 2.388 5.334 5.334v0c0 2.946-2.388 5.334-5.334 5.334s-5.334-2.388-5.334-5.334v0z"></path>
<path d="M13.333 6.667c0-0.736 0.597-1.334 1.334-1.334h8.4c4.13 0 5.619 5.405 1.987 7.429l-15.472 8.805c-0.407 0.224-0.678 0.65-0.678 1.139 0 0.716 0.58 1.296 1.296 1.296 0.023 0 0.046-0.001 0.069-0.002l-0.003 0h7.066c0.737 0 1.334 0.597 1.334 1.334s-0.597 1.334-1.334 1.334v0h-7.064c-4.131 0-5.619-5.405-1.987-7.429l15.472-8.805c0.407-0.224 0.678-0.65 0.678-1.139 0-0.716-0.58-1.296-1.296-1.296-0.024 0-0.047 0.001-0.070 0.002l0.003-0h-8.4c-0 0-0.001 0-0.002 0-0.736 0-1.333-0.597-1.333-1.333v0z"></path>
</symbol>
<symbol id="icon-heart" viewBox="0 0 32 32">
<path d="M22.6 2.464c-2.449 0.001-4.666 0.994-6.271 2.6l-0 0-0.329 0.325-0.328-0.328c-1.594-1.542-3.768-2.492-6.164-2.492-4.898 0-8.869 3.971-8.869 8.869 0 2.396 0.95 4.571 2.495 6.167l-0.002-0.002 1.411 1.413 10.375 10.373c0.277 0.277 0.661 0.449 1.084 0.449s0.807-0.172 1.084-0.449l11.787-11.787c1.604-1.605 2.597-3.821 2.597-6.269v-0c0-0.002 0-0.004 0-0.006 0-3.672-2.234-6.822-5.416-8.166l-0.058-0.022c-1.003-0.427-2.171-0.676-3.396-0.676h-0zM9.4 5.531c1.54 0 3.013 0.613 4.103 1.701l1.413 1.411c0.277 0.277 0.661 0.449 1.084 0.449s0.807-0.172 1.084-0.449v0l1.413-1.411c0.525-0.525 1.15-0.95 1.845-1.244l0.038-0.014c0-0 0-0 0-0.001s0-0 0-0.001v0c0.655-0.279 1.418-0.442 2.218-0.442 0.802 0 1.565 0.163 2.26 0.457l-0.038-0.014c2.12 0.898 3.58 2.961 3.58 5.365 0 0.799-0.161 1.56-0.453 2.253l0.014-0.038c0 0 0 0.001 0 0.001s0 0.001 0 0.001v-0c-0.308 0.731-0.733 1.356-1.259 1.88l-10.703 10.704-10.703-10.703c-1.050-1.049-1.699-2.498-1.699-4.099 0-0.002 0-0.003 0-0.005v0c0-0.002 0-0.004 0-0.007 0-3.201 2.595-5.796 5.796-5.796 0.002 0 0.005 0 0.007 0h-0z"></path>
</symbol>
<symbol id="icon-heart-red" viewBox="0 0 32 32">
<path fill="#e44848" style="fill: var(--color1, #e44848); stroke: var(--color1, #e44848)" stroke="#e44848" stroke-linejoin="round" stroke-linecap="round" stroke-miterlimit="4" stroke-width="3.0667" d="M27.787 6.147c-1.327-1.328-3.161-2.149-5.187-2.149s-3.859 0.821-5.187 2.149l-1.413 1.413-1.413-1.413c-1.327-1.327-3.161-2.148-5.187-2.148-4.051 0-7.335 3.284-7.335 7.335 0 2.026 0.821 3.859 2.148 5.187l11.787 11.787 11.787-11.787c1.328-1.327 2.149-3.161 2.149-5.187s-0.821-3.859-2.149-5.187l-0-0z"></path>
</symbol>
<symbol id="icon-close" viewBox="0 0 32 32">
<path d="M24 6.5c-0.414 0-0.789 0.168-1.060 0.44l-16 16c-0.271 0.271-0.439 0.646-0.439 1.060s0.168 0.789 0.439 1.060l-0-0c0.271 0.271 0.646 0.439 1.060 0.439s0.789-0.168 1.060-0.439l16-16c0.271-0.271 0.439-0.646 0.439-1.060s-0.168-0.789-0.439-1.060l0 0c-0.271-0.272-0.646-0.44-1.060-0.44h-0z"></path>
<path d="M8 6.5c-0.414 0-0.789 0.168-1.060 0.44l-0 0c-0.271 0.271-0.439 0.646-0.439 1.060s0.168 0.789 0.439 1.060l16 16c0.271 0.271 0.646 0.439 1.060 0.439s0.789-0.168 1.060-0.439l-0 0c0.271-0.271 0.439-0.646 0.439-1.060s-0.168-0.789-0.439-1.060l-16-16c-0.271-0.272-0.646-0.44-1.060-0.44h-0z"></path>
</symbol>
</defs>
</svg>
